<svg width="25" height="25" viewBox="0 0 25 25" fill="none" xmlns="http://www.w3.org/2000/svg">
<path d="M22.0238 7.14292H8.92858M6.54763 7.14292H2.9762M22.0238 19.0477H8.92858M6.54763 19.0477H2.9762M16.0714 13.0953H2.9762M22.0238 13.0953H18.4524M7.7381 4.76196C8.05384 4.76196 8.35664 4.88739 8.5799 5.11065C8.80315 5.3339 8.92858 5.63671 8.92858 5.95244V8.33339C8.92858 8.64913 8.80315 8.95193 8.5799 9.17518C8.35664 9.39844 8.05384 9.52387 7.7381 9.52387C7.42237 9.52387 7.11957 9.39844 6.89631 9.17518C6.67305 8.95193 6.54763 8.64913 6.54763 8.33339V5.95244C6.54763 5.63671 6.67305 5.3339 6.89631 5.11065C7.11957 4.88739 7.42237 4.76196 7.7381 4.76196V4.76196ZM7.7381 16.6667C8.05384 16.6667 8.35664 16.7921 8.5799 17.0154C8.80315 17.2387 8.92858 17.5415 8.92858 17.8572V20.2382C8.92858 20.5539 8.80315 20.8567 8.5799 21.0799C8.35664 21.3032 8.05384 21.4286 7.7381 21.4286C7.42237 21.4286 7.11957 21.3032 6.89631 21.0799C6.67305 20.8567 6.54763 20.5539 6.54763 20.2382V17.8572C6.54763 17.5415 6.67305 17.2387 6.89631 17.0154C7.11957 16.7921 7.42237 16.6667 7.7381 16.6667ZM17.2619 10.7143C17.5776 10.7143 17.8804 10.8398 18.1037 11.063C18.327 11.2863 18.4524 11.5891 18.4524 11.9048V14.2858C18.4524 14.6015 18.327 14.9043 18.1037 15.1276C17.8804 15.3508 17.5776 15.4762 17.2619 15.4762C16.9462 15.4762 16.6434 15.3508 16.4201 15.1276C16.1969 14.9043 16.0714 14.6015 16.0714 14.2858V11.9048C16.0714 11.5891 16.1969 11.2863 16.4201 11.063C16.6434 10.8398 16.9462 10.7143 17.2619 10.7143V10.7143Z" stroke="black" stroke-linecap="round" stroke-linejoin="round"/>
</svg>
