<svg width="83" height="21" viewBox="0 0 83 21" fill="none" xmlns="http://www.w3.org/2000/svg">
<path d="M11.4555 3.152V6.44H4.59151V9.992H9.72751V13.184H4.59151V20H0.487512V3.152H11.4555ZM26.8365 6.608V20H22.7325V18.176C22.3165 18.768 21.7485 19.248 21.0285 19.616C20.3245 19.968 19.5405 20.144 18.6765 20.144C17.6525 20.144 16.7485 19.92 15.9645 19.472C15.1805 19.008 14.5725 18.344 14.1405 17.48C13.7085 16.616 13.4925 15.6 13.4925 14.432V6.608H17.5725V13.88C17.5725 14.776 17.8045 15.472 18.2685 15.968C18.7325 16.464 19.3565 16.712 20.1405 16.712C20.9405 16.712 21.5725 16.464 22.0365 15.968C22.5005 15.472 22.7325 14.776 22.7325 13.88V6.608H26.8365ZM37.9444 6.464C39.5124 6.464 40.7604 6.976 41.6884 8C42.6324 9.008 43.1044 10.4 43.1044 12.176V20H39.0244V12.728C39.0244 11.832 38.7924 11.136 38.3284 10.64C37.8644 10.144 37.2404 9.896 36.4564 9.896C35.6724 9.896 35.0484 10.144 34.5844 10.64C34.1204 11.136 33.8884 11.832 33.8884 12.728V20H29.7844V6.608H33.8884V8.384C34.3044 7.792 34.8644 7.328 35.5684 6.992C36.2724 6.64 37.0644 6.464 37.9444 6.464ZM48.0203 5.216C47.3003 5.216 46.7083 5.008 46.2443 4.592C45.7963 4.16 45.5723 3.632 45.5723 3.008C45.5723 2.368 45.7963 1.84 46.2443 1.424C46.7083 0.991999 47.3003 0.775999 48.0203 0.775999C48.7243 0.775999 49.3003 0.991999 49.7483 1.424C50.2123 1.84 50.4443 2.368 50.4443 3.008C50.4443 3.632 50.2123 4.16 49.7483 4.592C49.3003 5.008 48.7243 5.216 48.0203 5.216ZM50.0603 6.608V20H45.9563V6.608H50.0603ZM57.1384 8.84C57.6184 8.104 58.2184 7.528 58.9384 7.112C59.6584 6.68 60.4584 6.464 61.3384 6.464V10.808H60.2104C59.1864 10.808 58.4184 11.032 57.9064 11.48C57.3944 11.912 57.1384 12.68 57.1384 13.784V20H53.0344V6.608H57.1384V8.84ZM69.396 20.192C68.084 20.192 66.9 19.912 65.844 19.352C64.804 18.792 63.98 17.992 63.372 16.952C62.78 15.912 62.484 14.696 62.484 13.304C62.484 11.928 62.788 10.72 63.396 9.68C64.004 8.624 64.836 7.816 65.892 7.256C66.948 6.696 68.132 6.416 69.444 6.416C70.756 6.416 71.94 6.696 72.996 7.256C74.052 7.816 74.884 8.624 75.492 9.68C76.1 10.72 76.404 11.928 76.404 13.304C76.404 14.68 76.092 15.896 75.468 16.952C74.86 17.992 74.02 18.792 72.948 19.352C71.892 19.912 70.708 20.192 69.396 20.192ZM69.396 16.64C70.18 16.64 70.844 16.352 71.388 15.776C71.948 15.2 72.228 14.376 72.228 13.304C72.228 12.232 71.956 11.408 71.412 10.832C70.884 10.256 70.228 9.968 69.444 9.968C68.644 9.968 67.98 10.256 67.452 10.832C66.924 11.392 66.66 12.216 66.66 13.304C66.66 14.376 66.916 15.2 67.428 15.776C67.956 16.352 68.612 16.64 69.396 16.64ZM80.5013 20.192C79.7813 20.192 79.1893 19.984 78.7253 19.568C78.2773 19.136 78.0533 18.608 78.0533 17.984C78.0533 17.344 78.2773 16.808 78.7253 16.376C79.1893 15.944 79.7813 15.728 80.5013 15.728C81.2053 15.728 81.7813 15.944 82.2293 16.376C82.6933 16.808 82.9253 17.344 82.9253 17.984C82.9253 18.608 82.6933 19.136 82.2293 19.568C81.7813 19.984 81.2053 20.192 80.5013 20.192Z" fill="black"/>
</svg>
