<svg width="20" height="20" viewBox="0 0 20 20" fill="none" xmlns="http://www.w3.org/2000/svg">
<g clip-path="url(#clip0_0_364)">
<path fill-rule="evenodd" clip-rule="evenodd" d="M0.833374 2.36498C0.833374 1.95876 0.994746 1.56917 1.28199 1.28193C1.56923 0.994687 1.95882 0.833315 2.36504 0.833315H17.6334C17.8347 0.832986 18.0341 0.872367 18.2202 0.949204C18.4062 1.02604 18.5753 1.13882 18.7177 1.2811C18.8602 1.42337 18.9731 1.59233 19.0502 1.77832C19.1272 1.96431 19.1668 2.16367 19.1667 2.36498V17.6333C19.1669 17.8347 19.1274 18.0341 19.0505 18.2202C18.9736 18.4062 18.8607 18.5753 18.7184 18.7177C18.576 18.8602 18.407 18.9731 18.221 19.0501C18.035 19.1272 17.8356 19.1668 17.6342 19.1666H2.36504C2.16383 19.1666 1.96459 19.127 1.7787 19.05C1.59282 18.973 1.42393 18.8601 1.28169 18.7177C1.13945 18.5754 1.02665 18.4065 0.949726 18.2205C0.872802 18.0346 0.833265 17.8354 0.833374 17.6341V2.36498ZM8.09004 7.82332H10.5725V9.06998C10.9309 8.35332 11.8475 7.70832 13.225 7.70832C15.8659 7.70832 16.4917 9.13582 16.4917 11.755V16.6066H13.8192V12.3516C13.8192 10.86 13.4609 10.0183 12.5509 10.0183C11.2884 10.0183 10.7634 10.9258 10.7634 12.3516V16.6066H8.09004V7.82332ZM3.50671 16.4925H6.18004V7.70832H3.50671V16.4916V16.4925ZM6.56254 4.84332C6.56758 5.07221 6.52685 5.2998 6.44274 5.51274C6.35863 5.72568 6.23283 5.91968 6.07273 6.08334C5.91263 6.24701 5.72146 6.37704 5.51042 6.46582C5.29938 6.5546 5.07274 6.60033 4.84379 6.60033C4.61484 6.60033 4.3882 6.5546 4.17716 6.46582C3.96613 6.37704 3.77495 6.24701 3.61485 6.08334C3.45475 5.91968 3.32895 5.72568 3.24484 5.51274C3.16073 5.2998 3.12 5.07221 3.12504 4.84332C3.13493 4.39403 3.32036 3.96647 3.64161 3.65222C3.96286 3.33797 4.39439 3.162 4.84379 3.162C5.29319 3.162 5.72472 3.33797 6.04597 3.65222C6.36722 3.96647 6.55265 4.39403 6.56254 4.84332Z" fill="black"/>
</g>
<defs>
<clipPath id="clip0_0_364">
<rect width="20" height="20" fill="white"/>
</clipPath>
</defs>
</svg>
