<svg width="26" height="23" viewBox="0 0 26 23" fill="none" xmlns="http://www.w3.org/2000/svg">
<path d="M24.2354 16.1926H7.95225L8.76982 14.5273L22.3542 14.5027C22.8136 14.5027 23.2073 14.1746 23.2894 13.7207L25.1706 3.19062C25.2198 2.91445 25.146 2.63008 24.9655 2.41406C24.8763 2.30775 24.7651 2.22211 24.6395 2.16309C24.5139 2.10407 24.377 2.07308 24.2382 2.07227L6.95693 2.01484L6.80928 1.32031C6.71631 0.877344 6.31709 0.554688 5.86318 0.554688H1.63857C1.38258 0.554688 1.13707 0.656381 0.95605 0.837398C0.775034 1.01841 0.67334 1.26393 0.67334 1.51992C0.67334 1.77592 0.775034 2.02143 0.95605 2.20245C1.13707 2.38346 1.38258 2.48516 1.63857 2.48516H5.08115L5.72646 5.55312L7.31514 13.2449L5.26982 16.5836C5.16361 16.727 5.09963 16.8972 5.08514 17.075C5.07064 17.2528 5.1062 17.4312 5.18779 17.5898C5.35186 17.9152 5.68271 18.1203 6.04912 18.1203H7.76631C7.40023 18.6065 7.20249 19.1988 7.20303 19.8074C7.20303 21.3551 8.46084 22.6129 10.0085 22.6129C11.5562 22.6129 12.814 21.3551 12.814 19.8074C12.814 19.1977 12.6116 18.6043 12.2507 18.1203H16.6558C16.2897 18.6065 16.0919 19.1988 16.0925 19.8074C16.0925 21.3551 17.3503 22.6129 18.8979 22.6129C20.4456 22.6129 21.7034 21.3551 21.7034 19.8074C21.7034 19.1977 21.5011 18.6043 21.1401 18.1203H24.2382C24.7687 18.1203 25.2034 17.6883 25.2034 17.1551C25.2018 16.8994 25.0992 16.6546 24.9178 16.4743C24.7365 16.294 24.4912 16.1927 24.2354 16.1926ZM7.35889 3.91797L23.1034 3.96992L21.5612 12.6051L9.19365 12.627L7.35889 3.91797ZM10.0085 20.6715C9.53271 20.6715 9.14443 20.2832 9.14443 19.8074C9.14443 19.3316 9.53271 18.9434 10.0085 18.9434C10.4843 18.9434 10.8726 19.3316 10.8726 19.8074C10.8726 20.0366 10.7815 20.2564 10.6195 20.4184C10.4574 20.5805 10.2377 20.6715 10.0085 20.6715ZM18.8979 20.6715C18.4222 20.6715 18.0339 20.2832 18.0339 19.8074C18.0339 19.3316 18.4222 18.9434 18.8979 18.9434C19.3737 18.9434 19.762 19.3316 19.762 19.8074C19.762 20.0366 19.671 20.2564 19.5089 20.4184C19.3469 20.5805 19.1271 20.6715 18.8979 20.6715Z" fill="black"/>
</svg>
