<svg width="28" height="28" viewBox="0 0 28 28" fill="none" xmlns="http://www.w3.org/2000/svg">
<path d="M18.6667 22.1667C17.7385 22.1667 16.8482 21.798 16.1918 21.1416C15.5355 20.4852 15.1667 19.595 15.1667 18.6667C15.1667 17.7385 15.5355 16.8482 16.1918 16.1918C16.8482 15.5355 17.7385 15.1667 18.6667 15.1667C19.595 15.1667 20.4852 15.5355 21.1416 16.1918C21.798 16.8482 22.1667 17.7385 22.1667 18.6667C22.1667 19.595 21.798 20.4852 21.1416 21.1416C20.4852 21.798 19.595 22.1667 18.6667 22.1667ZM9.33337 22.1667C8.40512 22.1667 7.51488 21.798 6.8585 21.1416C6.20212 20.4852 5.83337 19.595 5.83337 18.6667C5.83337 17.7385 6.20212 16.8482 6.8585 16.1918C7.51488 15.5355 8.40512 15.1667 9.33337 15.1667C10.2616 15.1667 11.1519 15.5355 11.8082 16.1918C12.4646 16.8482 12.8334 17.7385 12.8334 18.6667C12.8334 19.595 12.4646 20.4852 11.8082 21.1416C11.1519 21.798 10.2616 22.1667 9.33337 22.1667ZM18.6667 12.8334C17.7385 12.8334 16.8482 12.4646 16.1918 11.8082C15.5355 11.1519 15.1667 10.2616 15.1667 9.33337C15.1667 8.40512 15.5355 7.51488 16.1918 6.8585C16.8482 6.20212 17.7385 5.83337 18.6667 5.83337C19.595 5.83337 20.4852 6.20212 21.1416 6.8585C21.798 7.51488 22.1667 8.40512 22.1667 9.33337C22.1667 10.2616 21.798 11.1519 21.1416 11.8082C20.4852 12.4646 19.595 12.8334 18.6667 12.8334ZM9.33337 12.8334C8.40512 12.8334 7.51488 12.4646 6.8585 11.8082C6.20212 11.1519 5.83337 10.2616 5.83337 9.33337C5.83337 8.40512 6.20212 7.51488 6.8585 6.8585C7.51488 6.20212 8.40512 5.83337 9.33337 5.83337C10.2616 5.83337 11.1519 6.20212 11.8082 6.8585C12.4646 7.51488 12.8334 8.40512 12.8334 9.33337C12.8334 10.2616 12.4646 11.1519 11.8082 11.8082C11.1519 12.4646 10.2616 12.8334 9.33337 12.8334Z" fill="black"/>
</svg>
